<svg width="68" height="22" viewBox="0 0 68 22" fill="none" xmlns="http://www.w3.org/2000/svg">
<g clip-path="url(#clip0_32_34132)">
<g clip-path="url(#clip1_32_34132)">
<path d="M17.2002 21.6348L54.4538 18.234H13.9713L17.2002 21.6348Z" fill="#E8E8E8" fill-opacity="0.8"/>
<path d="M63.0912 4.20569C62.3269 4.22449 61.5841 4.47544 60.952 4.92836V4.46075H58.4496V16.0235H60.952V9.26439C60.9344 8.96827 60.9746 8.67148 61.07 8.39233C61.1655 8.11319 61.3143 7.8576 61.5071 7.64133C61.7 7.42507 61.9329 7.25271 62.1914 7.1349C62.45 7.01708 62.7287 6.95629 63.0104 6.95629C63.2921 6.95629 63.5709 7.01708 63.8294 7.1349C64.088 7.25271 64.3209 7.42507 64.5137 7.64133C64.7066 7.8576 64.8554 8.11319 64.9508 8.39233C65.0463 8.67148 65.0865 8.96827 65.0689 9.26439V16.066H67.5713V9.26439C67.5713 6.45872 65.755 4.20569 63.0912 4.20569Z" fill="#E8E8E8" fill-opacity="0.8"/>
<path d="M52.678 4.16321C49.772 4.16321 47.7135 6.84135 47.7135 10.2422C47.7135 13.813 50.2967 16.3211 52.9202 16.3211C54.2521 16.3211 55.9069 15.8535 57.3196 13.728L55.0997 12.3677C53.4045 15.0033 50.5388 13.6855 50.2159 11.0073H57.4003C58.0461 6.92636 55.5033 4.16321 52.678 4.16321ZM50.3774 8.7543C50.9021 6.07616 54.3732 5.90612 54.8575 8.7543H50.3774Z" fill="#E8E8E8" fill-opacity="0.8"/>
<path d="M42.3858 12.1976C42.3636 12.7275 42.4429 13.2567 42.6191 13.7536C42.7952 14.2504 43.0646 14.7049 43.4112 15.0897C43.7578 15.4746 44.1744 15.7819 44.6362 15.9935C45.098 16.205 45.5955 16.3165 46.0991 16.3211C46.9499 16.2897 47.7808 16.0417 48.5208 15.5984L46.9063 13.3029C46.6584 13.4891 46.3631 13.5928 46.0587 13.6004C45.8924 13.5955 45.7288 13.5545 45.5782 13.48C45.4276 13.4055 45.2932 13.2991 45.1834 13.1675C45.0736 13.0359 44.9907 12.8818 44.9399 12.7149C44.8891 12.5481 44.8715 12.3719 44.8882 12.1976V7.22391H47.0274V4.46076H44.8882V1.57007H42.3858V4.46076H41.0539V7.22391H42.3858V12.1976Z" fill="#E8E8E8" fill-opacity="0.8"/>
<path d="M35.5647 16.3211C36.329 16.3023 37.0718 16.0513 37.7039 15.5984V16.0235H40.2063V4.46075H37.7039V11.2624C37.7215 11.5585 37.6814 11.8553 37.5859 12.1344C37.4904 12.4136 37.3416 12.6692 37.1488 12.8854C36.9559 13.1017 36.723 13.2741 36.4645 13.3919C36.2059 13.5097 35.9272 13.5705 35.6455 13.5705C35.3638 13.5705 35.085 13.5097 34.8265 13.3919C34.5679 13.2741 34.335 13.1017 34.1422 12.8854C33.9493 12.6692 33.8005 12.4136 33.7051 12.1344C33.6096 11.8553 33.5694 11.5585 33.587 11.2624V4.46075H31.0846V11.2624C31.0846 14.068 32.9009 16.3211 35.5647 16.3211Z" fill="#E8E8E8" fill-opacity="0.8"/>
<path d="M24.1826 11.3049L27.8959 16.066H31.367L26.4025 9.90203L30.6808 4.46074H27.2097L24.1826 8.4992V0.634827H21.6399V16.066H24.1826V11.3049Z" fill="#E8E8E8" fill-opacity="0.8"/>
<path d="M17.7249 15.5134V16.0235H20.2273V4.46078H17.7249V4.9709C17.043 4.45259 16.2249 4.17034 15.384 4.16321C12.5587 4.16321 10.3792 6.88386 10.3792 10.2422C10.3792 13.6005 12.5183 16.3211 15.384 16.3211C16.2259 16.3206 17.0459 16.0377 17.7249 15.5134V15.5134ZM12.9219 10.2847C12.9219 8.45673 13.931 7.01139 15.3436 7.01139C16.7563 7.01139 17.7249 8.45673 17.7249 10.2847C17.7249 12.1126 16.7563 13.5579 15.3436 13.5579C13.931 13.5579 12.9219 12.1126 12.9219 10.2847Z" fill="#E8E8E8" fill-opacity="0.8"/>
<path d="M9.57189 6.54375C9.57082 5.22499 9.07295 3.96057 8.18758 3.02807C7.30221 2.09557 6.1017 1.57119 4.8496 1.57007H0.571289V16.0235H3.19478V11.5599H5.01105L8.1996 16.0235H11.4689L7.59418 10.6247C8.21252 10.1636 8.71547 9.55137 9.05992 8.8406C9.40437 8.12984 9.58004 7.3417 9.57189 6.54375ZM4.88996 8.8393H3.19478V4.33323H4.88996C5.4573 4.33323 6.00141 4.5706 6.40258 4.99313C6.80375 5.41565 7.02912 5.98872 7.02912 6.58626C7.02912 7.18381 6.80375 7.75687 6.40258 8.1794C6.00141 8.60193 5.4573 8.8393 4.88996 8.8393V8.8393Z" fill="#E8E8E8" fill-opacity="0.8"/>
</g>
</g>
<defs>
<clipPath id="clip0_32_34132">
<rect width="67" height="21" fill="white" transform="translate(0.571289 0.634827)"/>
</clipPath>
<clipPath id="clip1_32_34132">
<rect width="67" height="21" fill="white" transform="translate(0.571289 0.634827)"/>
</clipPath>
</defs>
</svg>
