<svg width="75" height="19" viewBox="0 0 75 19" fill="none" xmlns="http://www.w3.org/2000/svg">
<path d="M4.992 6.504H1.056C1.056 3.336 3.48 1.032 7.464 1.032C10.824 1.032 13.584 2.664 13.584 5.592C13.584 7.392 12.528 8.52 11.184 9.216V9.264C13.224 9.912 14.064 11.328 14.064 13.248C14.064 16.608 11.52 18.384 7.56 18.384C3.12 18.384 0.576 16.128 0.576 12.144H4.512C4.512 14.064 5.304 15.096 7.416 15.096C9.192 15.096 9.888 14.352 9.888 13.08C9.888 11.496 8.832 10.896 6.936 10.896H6.096V8.088H6.84C8.304 8.088 9.408 7.464 9.408 6.048C9.408 4.944 8.712 4.32 7.368 4.32C6.072 4.32 4.992 4.92 4.992 6.504ZM15.1296 18V0.839999H22.7376C27.5136 0.839999 30.3936 3.912 30.3936 9.432C30.3936 14.952 27.7536 18 22.9776 18H15.1296ZM19.4496 4.368V14.472H22.2096C24.8976 14.472 25.9776 12.552 25.9776 9.432C25.9776 6.312 24.8976 4.368 22.2096 4.368H19.4496ZM29.2576 0.839999H33.9856L37.2256 12.864H37.2736L40.5376 0.839999H45.0976L39.5296 18H34.9696L29.2576 0.839999ZM55.4645 7.224C55.1525 5.352 54.3845 3.984 52.1045 3.984C49.2485 3.984 48.3845 6.192 48.3845 9.408C48.3845 12.648 49.2485 14.856 52.1045 14.856C54.4085 14.856 55.1765 13.488 55.4645 11.568H59.8805C59.4965 15.504 56.9045 18.384 52.1765 18.384C46.7285 18.384 43.9685 14.592 43.9685 9.48C43.9685 4.224 46.8725 0.456 52.2965 0.456C56.9765 0.456 59.4725 3.24 59.8805 7.224H55.4645ZM69.1395 11.928C66.0195 11.928 63.4995 9.504 63.4995 6.192C63.4995 2.904 66.0195 0.456 69.1395 0.456C72.2595 0.456 74.7795 2.904 74.7795 6.192C74.7795 9.504 72.2595 11.928 69.1395 11.928ZM69.1395 11.328C71.8035 11.328 74.0835 9.288 74.0835 6.192C74.0835 3.12 71.8035 1.056 69.1395 1.056C66.4995 1.056 64.1955 3.12 64.1955 6.192C64.1955 9.288 66.4995 11.328 69.1395 11.328ZM66.9795 9.216V3H69.5955C70.7475 3 71.5395 3.624 71.5395 4.704C71.5395 5.472 71.0595 6.048 70.1235 6.264V6.288C71.5875 6.6 71.0595 8.88 71.6115 9.144V9.216H70.8915C70.0995 8.736 70.9635 6.552 69.2835 6.552H67.7475V9.216H66.9795ZM67.7475 5.88H69.4515C70.4355 5.88 70.7715 5.52 70.7715 4.752C70.7715 3.984 70.3875 3.672 69.4755 3.672H67.7475V5.88Z" fill="#E8E8E8"/>
</svg>
