<svg width="121" height="24" viewBox="0 0 121 24" fill="none" xmlns="http://www.w3.org/2000/svg">
<g clip-path="url(#clip0_32_34135)">
<g clip-path="url(#clip1_32_34135)">
<path fill-rule="evenodd" clip-rule="evenodd" d="M11.2804 16.4312L14.6212 19.8447L11.8342 22.8131C10.9305 23.7757 9.465 23.7757 8.56127 22.8131L1.60626 15.4056C0.702535 14.4427 0.702535 12.8822 1.60626 11.9197C2.51028 10.9571 3.97551 10.9571 4.87924 11.9197L10.1978 17.5842L11.2804 16.4312ZM12.1488 15.5062L15.1078 12.3547L18.3805 15.8406L15.6558 18.7427L12.1488 15.5062Z" fill="#E8E8E8" fill-opacity="0.8"/>
<path fill-rule="evenodd" clip-rule="evenodd" d="M25.537 18.6771L22.0498 15.4193L30.2445 6.69144C31.1482 5.72891 32.6135 5.72891 33.5175 6.69144C34.4212 7.65397 34.4212 9.21454 33.5175 10.1774L25.537 18.6771ZM24.4525 19.8322L21.6539 22.8129C20.7499 23.7754 19.2846 23.7754 18.3809 22.8129L6.51613 10.1761C5.6124 9.2133 5.6124 7.65274 6.51613 6.69021C7.41986 5.72737 8.88509 5.72737 9.78911 6.69021L20.0174 17.584L21.1678 16.3587L24.4525 19.8322Z" fill="#E8E8E8" fill-opacity="0.8"/>
<path fill-rule="evenodd" clip-rule="evenodd" d="M20.5086 14.6201L23.7661 11.1179L29.8371 17.584L35.1545 11.9207C36.0585 10.9581 37.5237 10.9581 38.4275 11.9207C39.3312 12.8835 39.3312 14.4441 38.4275 15.4066L31.4736 22.8129C30.5699 23.7754 29.1047 23.7754 28.2009 22.8129L20.5086 14.6201ZM19.1591 13.1828L11.4261 4.94665C10.5224 3.98412 10.5224 2.42355 11.4261 1.46102C12.3301 0.498182 13.7954 0.498182 14.6991 1.46102L22.4401 9.70571L19.1591 13.1828Z" fill="#E8E8E8" fill-opacity="0.8"/>
<path fill-rule="evenodd" clip-rule="evenodd" d="M28.6077 1.46225C27.704 0.499724 26.2387 0.499724 25.3347 1.46225L15.1076 12.3548L18.3806 15.8407L28.6077 4.94819C29.5114 3.98535 29.5114 2.42478 28.6077 1.46225Z" fill="#E8E8E8" fill-opacity="0.8"/>
<path fill-rule="evenodd" clip-rule="evenodd" d="M51.0861 3.16459H48.2401V20.97H58.6678V18.281H51.0861V3.16459ZM64.8272 8.51831C66.5575 8.51831 67.7187 9.26929 68.3562 10.1898L68.4928 8.76056H70.9517V20.97H68.4928L68.3562 19.5407C67.7187 20.4612 66.5575 21.2122 64.8272 21.2122C61.708 21.2122 59.5906 18.5232 59.5906 14.8653C59.5906 11.1831 61.708 8.51831 64.8272 8.51831ZM65.4191 11.0862C63.6432 11.0862 62.3682 12.5639 62.3682 14.8653C62.3682 17.1666 63.6432 18.6444 65.4191 18.6444C66.7852 18.6444 67.6048 17.8692 68.2196 16.8275V12.903C67.6048 11.8614 66.7852 11.0862 65.4191 11.0862ZM77.8397 4.66654H75.1075V8.76056H72.9446V11.2315H75.1075V16.6579C75.1075 19.6134 76.7696 21.2122 79.3879 21.2122C80.5263 21.2122 81.3687 20.8731 81.9379 20.4855L81.2093 18.2083C80.8678 18.4263 80.3669 18.5959 79.6383 18.5959C78.5682 18.5959 77.8397 17.8692 77.8397 16.6337V11.2315H81.3004V8.76056H77.8397V4.66654ZM87.2548 4.66654H84.5227V8.76056H82.3598V11.2315H84.5227V16.6579C84.5227 19.6134 86.1848 21.2122 88.8031 21.2122C89.9415 21.2122 90.7839 20.8731 91.3531 20.4855L90.6245 18.2083C90.283 18.4263 89.7821 18.5959 89.0535 18.5959C87.9834 18.5959 87.2548 17.8692 87.2548 16.6337V11.2315H90.7156V8.76056H87.2548V4.66654ZM95.9187 8.76056H93.1865V20.97H95.9187V8.76056ZM94.5526 3.06769C93.5964 3.06769 92.8678 3.81866 92.8678 4.86034C92.8678 5.90201 93.5964 6.65299 94.5526 6.65299C95.5316 6.65299 96.2602 5.90201 96.2602 4.86034C96.2602 3.81866 95.5316 3.06769 94.5526 3.06769ZM104.173 8.51831C100.644 8.51831 98.2986 11.1831 98.2986 14.8653C98.2986 18.5232 100.666 21.2122 104.195 21.2122C106.267 21.2122 107.838 20.219 108.863 18.5232L106.905 16.9002C106.358 17.8692 105.47 18.6686 104.218 18.6686C102.192 18.6686 101.076 16.9971 101.076 14.8653C101.076 12.7092 102.146 11.0619 104.195 11.0619C105.47 11.0619 106.313 11.8371 106.837 12.8061L108.817 11.2073C107.793 9.51154 106.267 8.51831 104.173 8.51831ZM115.546 8.51831C119.075 8.51831 120.805 11.3284 120.805 14.7441V15.7616H112.7C112.768 17.6996 113.861 18.7655 115.774 18.7655C117.117 18.7655 118.096 18.1356 118.62 17.3604L120.509 19.0077C119.371 20.4612 117.868 21.2122 115.751 21.2122C112.199 21.2122 109.922 18.5475 109.922 14.8895C109.922 11.2073 112.245 8.51831 115.546 8.51831ZM115.5 10.8439C113.884 10.8439 112.791 11.9825 112.7 13.6782H118.119C118.05 12.0067 117.14 10.8439 115.5 10.8439Z" fill="#E8E8E8" fill-opacity="0.8"/>
</g>
</g>
<defs>
<clipPath id="clip0_32_34135">
<rect width="120" height="22.8" fill="white" transform="translate(0.928467 0.734802)"/>
</clipPath>
<clipPath id="clip1_32_34135">
<rect width="120" height="22.8" fill="white" transform="translate(0.928467 0.734802)"/>
</clipPath>
</defs>
</svg>
