<svg width="88" height="18" viewBox="0 0 88 18" fill="none" xmlns="http://www.w3.org/2000/svg">
<g clip-path="url(#clip0_32_34131)">
<g clip-path="url(#clip1_32_34131)">
<path d="M58.6417 15.3179C59.7948 15.3432 60.9107 14.9006 61.7446 14.0873L63.2843 15.7789C62.267 16.8452 60.8608 17.6348 58.6691 17.6348C54.9142 17.6348 52.4908 15.0935 52.4908 11.6542C52.4757 10.8834 52.6097 10.1171 52.885 9.39913C53.1604 8.6812 53.5719 8.02574 54.0957 7.47025C54.6196 6.91476 55.2457 6.47014 55.9381 6.16184C56.6305 5.85353 57.3757 5.6876 58.131 5.67352H58.3392C62.0667 5.67352 64.1798 8.56765 63.9952 12.5842H55.1734C55.4877 14.2517 56.6346 15.3139 58.6417 15.3139V15.3179ZM61.3282 10.6561C61.0926 9.10078 60.1813 7.95435 58.3549 7.95435C57.5877 7.90861 56.8321 8.16229 56.2414 8.66397C55.6506 9.16565 55.2688 9.8778 55.1734 10.6561H61.3282Z" fill="#E8E8E8" fill-opacity="0.8"/>
<path d="M0.785645 15.1936L7.56889 8.16272H0.946683V5.95404H10.7111V8.20681L3.92786 15.2377H10.8014V17.4424H0.785645V15.1936Z" fill="#E8E8E8" fill-opacity="0.8"/>
<path d="M18.4175 15.3179C19.5706 15.3432 20.6865 14.9006 21.5204 14.0873L23.0601 15.7789C22.0428 16.8452 20.6367 17.6348 18.445 17.6348C14.69 17.6348 12.2666 15.0935 12.2666 11.6542C12.2515 10.884 12.3852 10.1184 12.6601 9.40095C12.935 8.68354 13.3457 8.02842 13.8688 7.47304C14.3918 6.91765 15.017 6.47287 15.7085 6.16411C16.4 5.85534 17.1443 5.68864 17.899 5.67352H18.1072C21.8346 5.67352 23.9478 8.56765 23.7632 12.5842H14.9493C15.2635 14.2517 16.4104 15.3139 18.4175 15.3139V15.3179ZM21.1041 10.6561C20.8684 9.10078 19.9572 7.95435 18.1307 7.95435C17.3635 7.90861 16.6079 8.16229 16.0172 8.66397C15.4264 9.16565 15.0446 9.8778 14.9493 10.6561H21.1041Z" fill="#E8E8E8" fill-opacity="0.8"/>
<path d="M38.4019 11.6662C38.4019 7.9904 41.0924 5.69354 44.0539 5.69354C44.7645 5.68416 45.4685 5.8336 46.1165 6.13136C46.7645 6.42913 47.3408 6.868 47.8049 7.41719V0.634827H50.2009V17.4103H47.8049V15.807C47.3495 16.3792 46.7738 16.8395 46.1204 17.1538C45.467 17.4681 44.7527 17.6284 44.0303 17.6228C43.285 17.617 42.5481 17.4615 41.8616 17.1651C41.1752 16.8686 40.5527 16.4371 40.0297 15.8952C39.5067 15.3532 39.0934 14.7114 38.8134 14.0064C38.5334 13.3015 38.3922 12.5471 38.3979 11.7864C38.3979 11.7383 38.3979 11.6942 38.3979 11.6502L38.4019 11.6662ZM47.9385 11.6261C47.9234 10.6532 47.5323 9.72576 46.8502 9.04591C46.168 8.36605 45.2503 7.98886 44.2969 7.99653C43.3435 8.0042 42.4317 8.3961 41.7602 9.08685C41.0886 9.77759 40.7118 10.7112 40.7118 11.6842C40.7118 12.6573 41.0886 13.5909 41.7602 14.2816C42.4317 14.9723 43.3435 15.3643 44.2969 15.3719C45.2503 15.3796 46.168 15.0024 46.8502 14.3225C47.5323 13.6427 47.9234 12.7153 47.9385 11.7423V11.6261Z" fill="#E8E8E8" fill-opacity="0.8"/>
<path d="M65.5467 14.9732L67.7148 13.8227C68.0025 14.3442 68.424 14.7758 68.9341 15.0711C69.4441 15.3663 70.0234 15.514 70.6096 15.4983C71.9647 15.4983 72.6678 14.7888 72.6678 13.9831C72.6678 13.0651 71.3559 12.8567 69.9183 12.5601C67.9976 12.1592 65.9906 11.5018 65.9906 9.13681C65.9906 7.32097 67.6834 5.64542 70.3543 5.66546C72.4557 5.66546 74.015 6.51526 74.8987 7.89418L72.9152 9.02057C72.637 8.60024 72.2583 8.25928 71.815 8.02992C71.3717 7.80056 70.8784 7.69038 70.3818 7.70979C69.0935 7.70979 68.4376 8.35516 68.4376 9.08871C68.4376 9.91446 69.4784 10.147 71.1045 10.5117C72.9584 10.9126 75.0598 11.5459 75.0598 13.935C75.0598 15.5384 73.7047 17.6589 70.4918 17.6348C68.1351 17.6348 66.4894 16.6688 65.5428 14.9692" fill="#E8E8E8" fill-opacity="0.8"/>
<path d="M81.5718 12.3075L79.6708 14.42V17.4104H77.2748V0.634827H79.6708V11.6181L84.7572 5.91802H87.6756L83.2647 10.8364L87.7855 17.4104H85.0754L81.5718 12.3075Z" fill="#E8E8E8" fill-opacity="0.8"/>
<path d="M31.159 5.68949C28.3114 5.68949 25.9272 7.57348 25.9272 10.7001V17.4103H28.3703V10.9967C28.3703 9.11274 29.4308 7.98636 31.2415 7.98636C33.0522 7.98636 33.9556 9.11274 33.9556 10.9967V17.4103H36.3869V10.6961C36.3869 7.56948 34.0027 5.68549 31.1551 5.68549" fill="#E8E8E8" fill-opacity="0.8"/>
</g>
</g>
<defs>
<clipPath id="clip0_32_34131">
<rect width="87" height="17" fill="white" transform="translate(0.785645 0.634827)"/>
</clipPath>
<clipPath id="clip1_32_34131">
<rect width="87" height="17" fill="white" transform="translate(0.785645 0.634827)"/>
</clipPath>
</defs>
</svg>
