<svg width="55" height="21" viewBox="0 0 55 21" fill="none" xmlns="http://www.w3.org/2000/svg">
<g clip-path="url(#clip0_32_34136)">
<path d="M6.18938 5.24015H0.714233L0.714233 0.134827H17.7305V5.24015H12.2541V20.1348H6.18938V5.24015V5.24015ZM18.6721 0.134827H35.2175V5.24015H24.7373V7.70281H35.2175V12.5069H24.7373V15.0295H35.2175V20.1348H18.6721V0.134827V0.134827ZM36.2178 0.134827H46.1685C52.7045 0.134827 54.9999 5.05999 54.9999 10.1052C54.9999 16.2312 51.8199 20.1348 44.9906 20.1348H36.2178V0.134827V0.134827ZM42.283 15.0295H44.6371C48.4052 15.0295 48.9364 11.907 48.9364 10.0453C48.9364 8.78344 48.5242 5.30026 44.1663 5.30026H42.2227L42.283 15.0295V15.0295Z" fill="#E8E8E8" fill-opacity="0.8"/>
</g>
<defs>
<clipPath id="clip0_32_34136">
<rect width="54.2857" height="20" fill="white" transform="translate(0.714233 0.134827)"/>
</clipPath>
</defs>
</svg>
