<svg width="81" height="25" viewBox="0 0 81 25" fill="none" xmlns="http://www.w3.org/2000/svg">
<g clip-path="url(#clip0_32_34134)">
<g clip-path="url(#clip1_32_34134)">
<path d="M48.8647 13.6416C48.8647 13.6416 48.7043 13.0195 48.7043 12.5583V5.34352H51.4387V19.2401L42.6843 11.5798C42.2159 11.1592 41.9387 10.6896 41.9387 10.6896C41.9387 10.6896 42.0775 11.2074 42.0775 11.6555L42.0751 18.9265H39.3391V5.08441L48.0131 12.5909C48.4783 13.0072 48.8647 13.6416 48.8647 13.6416Z" fill="#E8E8E8" fill-opacity="0.8"/>
<path d="M73.6237 5.34485C77.9569 5.34485 79.0665 7.15055 79.0665 9.74583C79.0665 11.6268 77.7557 13.4697 75.1121 13.6878L74.8225 13.7026C74.8225 13.7026 75.0781 13.7503 75.3453 14.0221L80.1429 18.9261H76.4357L69.7381 11.7401H73.0729C76.0601 11.7401 76.1469 10.0768 76.1673 9.65749C76.2233 8.57796 75.8965 7.71484 73.6185 7.71484H69.8053V18.9261H66.9637V5.34485H73.6237Z" fill="#E8E8E8" fill-opacity="0.8"/>
<path d="M52.6688 12.3293C52.6688 6.63956 57.1756 5.14453 60.964 5.14453C62.4808 5.14453 63.824 5.28824 65.2376 5.60483L65.2416 8.49007C64.4288 8.2259 62.7964 7.64597 60.9644 7.64597C57.3728 7.64597 55.6288 9.12029 55.6288 12.3289C55.6288 14.9571 57.5088 16.6314 60.9644 16.6314C62.7964 16.6314 64.6308 16.1707 65.5192 15.8245L65.514 18.6235C64.102 18.9384 62.4812 19.1328 60.9644 19.1328C56.918 19.1332 52.6688 17.0549 52.6688 12.3293Z" fill="#E8E8E8" fill-opacity="0.8"/>
<path d="M21.8977 5.69397L24.5645 8.348C24.4917 8.38224 24.4077 8.42451 24.3089 8.47692C24.1545 8.56188 23.9705 8.67558 23.7501 8.83705C23.3105 9.15617 22.7377 9.66593 22.0049 10.5016L16.7929 16.33C15.8997 17.3275 14.9921 18.1179 14.1481 18.536L11.4797 15.8811C11.5525 15.8451 11.6365 15.8054 11.7337 15.7505C11.8881 15.6672 12.0721 15.5518 12.2925 15.3929C12.7309 15.0708 13.3053 14.564 14.0389 13.7271L19.2497 7.90841C20.1433 6.91214 21.0525 6.112 21.8977 5.69397Z" fill="#E8E8E8" fill-opacity="0.8"/>
<path d="M11.5744 19.7829C12.7532 19.7829 13.8368 19.5361 14.572 19.1333C14.908 18.9481 15.3876 18.6294 15.8 18.2896C16.2108 17.951 16.7932 17.4235 17.2856 16.8702L22.5028 11.0583C23.8188 9.59371 24.6096 9.14144 25.0896 8.96349L27.7656 11.642C27.2072 12.2731 20.5468 19.769 20.5468 19.769C20.0928 20.2872 19.6144 20.7872 19.2892 21.1021C18.9768 21.4065 18.4424 21.86 18.1664 22.0734C16.6 23.2861 14.5076 24.2697 11.69 24.2697C5.30562 24.2697 0.142822 18.7786 0.142822 12.4557C0.142822 4.61196 5.94242 0.0604999 11.2244 0.0604999C12.8436 0.00977784 14.1428 0.297625 15.17 0.666206C16.1192 1.00731 16.836 1.41985 17.356 1.70051C16.7412 2.11686 16.1464 2.68452 15.166 3.79111L14.0948 5.00632C13.8484 4.90615 12.7556 4.50333 11.3528 4.54856C7.96362 4.65423 4.25682 7.55722 4.39042 12.3196C4.51482 16.7726 7.98842 19.7829 11.5744 19.7829Z" fill="#E8E8E8" fill-opacity="0.8"/>
<path d="M21.4388 5.13645C21.1016 5.32286 20.6232 5.64071 20.2084 5.98055C19.7988 6.31912 19.2168 6.84663 18.7228 7.39866L13.5068 13.2118C12.1908 14.6764 11.3996 15.127 10.92 15.3054L8.24404 12.6294C8.80404 11.9966 15.4632 4.502 15.4632 4.502C15.9184 3.98379 16.3956 3.48376 16.7208 3.16759C17.0332 2.86326 17.5676 2.41141 17.846 2.19626C19.4096 0.983585 21.5048 0 24.3224 0C30.7064 0 35.8668 5.49151 35.8668 11.8127C35.8668 19.659 30.0684 24.2079 24.7852 24.2079C23.1672 24.2599 21.8668 23.9721 20.8412 23.6005C19.8896 23.2607 19.17 22.8456 18.6512 22.5662C19.3008 22.103 19.8568 21.5949 20.8448 20.4794L21.9144 19.2642C22.1608 19.3627 23.254 19.766 24.658 19.722C28.046 19.6151 31.754 16.7091 31.6204 11.948C31.4948 7.49714 28.0188 4.48552 24.4348 4.48552C23.254 4.48552 22.1752 4.73364 21.4388 5.13645Z" fill="#E8E8E8" fill-opacity="0.8"/>
</g>
</g>
<defs>
<clipPath id="clip0_32_34134">
<rect width="80" height="24.2697" fill="white" transform="translate(0.142822)"/>
</clipPath>
<clipPath id="clip1_32_34134">
<rect width="80" height="24.2697" fill="white" transform="translate(0.142822)"/>
</clipPath>
</defs>
</svg>
