<svg width="62" height="21" viewBox="0 0 62 21" fill="none" xmlns="http://www.w3.org/2000/svg">
<g clip-path="url(#clip0_32_34130)">
<g clip-path="url(#clip1_32_34130)">
<path d="M26.6105 0.146941L16.2295 7.93618C15.7416 6.02031 14.614 4.31733 13.0245 3.09567C11.435 1.874 9.47395 1.20311 7.45043 1.18873H0V19.093H7.45043C9.48473 19.1198 11.4668 18.4643 13.0648 17.236C14.6629 16.0078 15.7801 14.2813 16.2295 12.3456L26.6105 20.1348L36.9914 12.3456V19.093H48.701V15.4589H40.9773V1.17661H36.7182V7.92404L26.8712 15.7133L24.7479 13.8962L29.541 10.262L34.5948 6.37347L31.6643 4.03549L21.8174 11.5582L19.6939 9.74111L29.541 2.4728L26.6105 0.134827V0.146941ZM3.98598 4.81078H7.17728C7.83765 4.81203 8.48998 4.95253 9.08955 5.22265C9.69856 5.49591 10.247 5.88274 10.7038 6.36136C11.1846 6.86512 11.5638 7.45283 11.8214 8.09361C12.3509 9.45554 12.3509 10.9595 11.8214 12.3214C11.5805 12.9603 11.2228 13.5513 10.7659 14.0658C10.3217 14.5715 9.7767 14.9836 9.16402 15.2772C8.53296 15.5744 7.84082 15.7277 7.14 15.7254H3.98598V4.82289V4.81078ZM61.9876 15.4589V19.093H50.2904V1.17661H54.5496V15.4589H62H61.9876Z" fill="#E8E8E8" fill-opacity="0.8"/>
</g>
</g>
<defs>
<clipPath id="clip0_32_34130">
<rect width="62" height="20" fill="white" transform="translate(0 0.134827)"/>
</clipPath>
<clipPath id="clip1_32_34130">
<rect width="62" height="20" fill="white" transform="translate(0 0.134827)"/>
</clipPath>
</defs>
</svg>
