<svg width="12" height="12" viewBox="0 0 12 12" fill="none" xmlns="http://www.w3.org/2000/svg">
<path fill-rule="evenodd" clip-rule="evenodd" d="M11.4621 0.808609C11.4377 0.749636 11.4015 0.694385 11.3536 0.646447C11.3056 0.598508 11.2504 0.562339 11.1914 0.537939C11.1324 0.513493 11.0678 0.5 11 0.5H10.9999H1C0.723858 0.5 0.5 0.723858 0.5 1C0.5 1.27614 0.723858 1.5 1 1.5H9.79289L0.646447 10.6464C0.451184 10.8417 0.451184 11.1583 0.646447 11.3536C0.841709 11.5488 1.15829 11.5488 1.35355 11.3536L10.5 2.20711V11C10.5 11.2761 10.7239 11.5 11 11.5C11.2761 11.5 11.5 11.2761 11.5 11V1.00049V1C11.5 0.999 11.5 0.998 11.5 0.997001C11.4996 0.930299 11.4861 0.866692 11.4621 0.808609Z" fill="white" fill-opacity="0.65"/>
</svg>
